<?xml version="1.0" encoding="UTF-8"?>
<svg xmlns="http://www.w3.org/2000/svg" xmlns:xlink="http://www.w3.org/1999/xlink" viewBox="0 0 144 144" width="144px" height="144px">
<g id="surface85611738">
<path style=" stroke:none;fill-rule:nonzero;fill:rgb(0%,0%,0%);fill-opacity:1;" d="M 72 28.8125 C 52.800781 28.8125 40.800781 38.410156 36 57.601562 C 43.199219 48.007812 51.601562 44.410156 61.199219 46.804688 C 66.679688 48.175781 70.59375 52.148438 74.929688 56.546875 C 81.984375 63.707031 90.152344 72 108 72 C 127.199219 72 139.199219 62.402344 144 43.207031 C 136.800781 52.804688 128.398438 56.402344 118.800781 54.007812 C 113.324219 52.636719 109.410156 48.664062 105.074219 44.265625 C 98.015625 37.101562 89.84375 28.8125 72 28.8125 Z M 36 72 C 16.800781 72 4.800781 81.597656 0 100.792969 C 7.199219 91.195312 15.601562 87.597656 25.199219 89.996094 C 30.675781 91.367188 34.589844 95.339844 38.925781 99.734375 C 45.984375 106.898438 54.15625 115.191406 72 115.191406 C 91.199219 115.191406 103.199219 105.59375 108 86.398438 C 100.800781 95.992188 92.398438 99.59375 82.800781 97.195312 C 77.320312 95.824219 73.40625 91.851562 69.070312 87.457031 C 62.015625 80.292969 53.847656 72 36 72 Z M 36 72 "/>
</g>
</svg>
